Coordinates
version=1
nRows=13
nColumns=22
inDegrees=yes

Units are S.I. units (second, meters, Newtons, ...)
If the header above contains a line with 'inDegrees', this indicates whether rotational values are in degrees (yes) or radians (no).

endheader
time	pelvis_tilt	pelvis_list	pelvis_rotation	pelvis_tx	pelvis_ty	pelvis_tz	hip_flexion_r	hip_adduction_r	hip_rotation_r	knee_angle_r	ankle_angle_r	subtalar_angle_r	hip_flexion_l	hip_adduction_l	hip_rotation_l	knee_angle_l	ankle_angle_l	subtalar_angle_l	lumbar_extension	lumbar_bending	lumbar_rotation
      2.41000000	      5.74989399	      5.32709563	    -32.69190029	     -0.11525947	      0.88419279	      0.04675839	      2.08791671	     -8.26623183	      5.02567109	    -60.38600368	      3.31917653	     -0.86888371	     17.24670349	      7.28503036	    -16.34479023	    -26.46397327	      9.67166344	     -8.08902737	     -8.43547826	     -9.59864109	      7.59480565
      2.42000000	      5.94602459	      5.49365234	    -32.92705784	     -0.10672768	      0.88557846	      0.05011567	      3.98375764	     -8.73555886	      5.10074406	    -62.57694074	      4.00247477	     -1.98219538	     16.13345124	      7.66611191	    -16.79158218	    -25.79556082	     10.00439633	     -7.69894698	     -8.69954139	     -9.86134284	      7.36295550
      2.43000000	      6.08036041	      5.55594278	    -33.06839964	     -0.09823396	      0.88709041	      0.05341123	      5.78857329	     -9.03395910	      5.10915755	    -64.38530965	      4.82941808	     -3.19629418	     15.01452527	      7.97176395	    -17.02313691	    -25.11244734	     10.31497651	     -7.34060438	     -8.97309390	     -9.97117832	      7.08605254
      2.44000000	      6.15563357	      5.52374398	    -33.09906045	     -0.08973211	      0.88869854	      0.05664887	      7.48882668	     -9.19007086	      5.00299259	    -65.80914174	      5.69484760	     -4.41524348	     13.90595745	      8.18568356	    -17.13447761	    -24.45736692	     10.61829589	     -7.02814160	     -9.24772774	     -9.93580966	      6.71734331
      2.45000000	      6.16481349	      5.40971498	    -33.03933812	     -0.08121121	      0.89037252	      0.05984396	      9.09449610	     -9.20744233	      4.81437887	    -66.85541240	      6.56221230	     -5.55179280	     12.79811972	      8.31985188	    -17.09584579	    -23.78296872	     10.89512117	     -6.75941044	     -9.49886758	     -9.76782798	      6.32917318
      2.46000000	      6.12948585	      5.22358797	    -32.87916461	     -0.07266273	      0.89207682	      0.06297241	     10.58565628	     -9.12012811	      4.52515906	    -67.54180051	      7.41305055	     -6.59267599	     11.69139285	      8.38073988	    -16.93673824	    -23.12092056	     11.16460611	     -6.51470732	     -9.74801405	     -9.48795197	      5.88563463
      2.47000000	      6.05972655	      4.96550619	    -32.64391888	     -0.06405193	      0.89378363	      0.06607294	     11.95131889	     -8.94080862	      4.15467290	    -67.87797457	      8.24139436	     -7.52741649	     10.56672508	      8.35684914	    -16.73218020	    -22.45965103	     11.46512426	     -6.28178197	     -9.98865928	     -9.10402810	      5.42748596
      2.48000000	      5.98023252	      4.67603630	    -32.35823516	     -0.05536721	      0.89543922	      0.06916173	     13.20717810	     -8.72933737	      3.72831217	    -67.89925188	      9.04010711	     -8.39409806	      9.42071528	      8.29265310	    -16.50898374	    -21.78532021	     11.74740406	     -6.04554771	    -10.21443313	     -8.67423118	      4.96331463
      2.49000000	      5.91015642	      4.37034782	    -32.02514972	     -0.04659487	      0.89700562	      0.07222355	     14.34849428	     -8.51811581	      3.25372741	    -67.63222748	      9.81642394	     -9.18601269	      8.25220125	      8.20900421	    -16.26909098	    -21.10919109	     12.02950348	     -5.80078437	    -10.43679480	     -8.22262394	      4.46896174
      2.50000000	      5.84972091	      4.05641219	    -31.66628309	     -0.03770490	      0.89844469	      0.07532129	     15.38065805	     -8.33112056	      2.71623327	    -67.09027843	     10.58955090	    -10.04937018	      7.06154090	      8.10524238	    -16.03723374	    -20.42983595	     12.29594823	     -5.52452920	    -10.63632790	     -7.76910087	      4.03257178
      2.51000000	      5.80785826	      3.75147948	    -31.28416431	     -0.02876892	      0.89971002	      0.07840671	     16.32374577	     -8.17507128	      2.15527092	    -66.31236787	     11.36242233	    -10.90519583	      5.87935273	      7.99973192	    -15.79839451	    -19.78672573	     12.56969276	     -5.23606525	    -10.83078399	     -7.32803390	      3.56477337
      2.52000000	      5.77965405	      3.47567333	    -30.90810374	     -0.01983927	      0.90074150	      0.08152658	     17.20869050	     -8.05806216	      1.59850850	    -65.32567540	     12.17806905	    -11.86700954	      4.73788007	      7.89839054	    -15.59739237	    -19.20595158	     12.85744152	     -4.92406295	    -11.00436705	     -6.92613255	      3.09127240
      2.53000000	      5.75187504	      3.20604313	    -30.50755297	     -0.01089875	      0.90157077	      0.08463952	     18.01979943	     -7.97744406	      0.97663216	    -64.12401010	     12.93504051	    -12.71129126	      3.63833913	      7.78790515	    -15.32714295	    -18.68706499	     13.13416558	     -4.65047010	    -11.16279970	     -6.52924893	      2.63145903
